<?xml version="1.0" encoding="utf-8"?>
<!-- Generator: Adobe Illustrator 16.0.0, SVG Export Plug-In . SVG Version: 6.00 Build 0)  -->
<!DOCTYPE svg PUBLIC "-//W3C//DTD SVG 1.1//EN" "http://www.w3.org/Graphics/SVG/1.1/DTD/svg11.dtd">
<svg version="1.1" id="Layer_1" xmlns="http://www.w3.org/2000/svg" xmlns:xlink="http://www.w3.org/1999/xlink" x="0px" y="0px"
	 width="1920px" height="1080px" viewBox="0 0 1920 1080" enable-background="new 0 0 1920 1080" xml:space="preserve">
<rect id="bg" x="-2.333" fill="#474549" width="1930.297" height="1081.721"/>
<g id="skyline_sf" opacity="0.4">
	<path fill="none" stroke="#6B6572" stroke-width="2" stroke-linecap="round" stroke-linejoin="round" stroke-miterlimit="10" d="
		M60.963,873.593v-76.606h22.342l1.924-41.309l29.995-3.378l0.507-59.046l34.604-14.365l105.135,14.365l0.194,49.473l38.304,6.381
		l9.575-25.534h12.768l0.871-45.925l29.792-2.662l94.697,7.981l2.127,31.391l23.409,7.977l1.063-10.64l53.2-4.788l4.789-65.435
		h5.851l3.724,64.373l40.965,9.041l0.706,96.117l26.426,0.708l2.127,21.281l26.772,8.511l0.361-19.152l18.62-2.657l46.815,1.596
		l0.883-103.212l28.377-3.191l90.082,2.485l-0.173-97.713l30.324-4.255v-22.875l89.376,4.256l0.352,19.151l33.698,4.256
		l-0.36,207.127l30.15,6.738l3.193,10.107l33.518,2.658l0.532,23.412l34.048,5.317l59.583,21.282l31.388,2.657l-0.531-100.546
		l58.52-10.642l60.291,10.642l-0.707,82.99l28.729,8.513l28.564-177.548l-3.911-106.883h11.731l11.731-82.117l6.026-0.08
		l9.616,82.197l10.976,0.041l-3.81,106.189l26.231,194.05l20.949-6.628l11.351-2.126l13.478,9.928l52.49,3.547l14.896-7.093
		l15.607,13.478l4.965-39.013l21.28-7.093l5.674-31.212l22.699-17.024l20.572,15.605l1.42,31.211l9.928,45.4l72.35-4.26
		l2.84-100.723l66.678-4.258l4.966,87.957l217.765,11.349L1998,1218.634c0,0-2049-17.6-2049-11.73
		c0,5.864,15.642-326.51,15.642-326.51L60.963,873.593z"/>
</g>
</svg>
