<?xml version="1.0" encoding="utf-8"?>
<!-- Generator: Adobe Illustrator 16.0.0, SVG Export Plug-In . SVG Version: 6.00 Build 0)  -->
<!DOCTYPE svg PUBLIC "-//W3C//DTD SVG 1.1//EN" "http://www.w3.org/Graphics/SVG/1.1/DTD/svg11.dtd">
<svg version="1.1" id="Layer_1" xmlns="http://www.w3.org/2000/svg" xmlns:xlink="http://www.w3.org/1999/xlink" x="0px" y="0px"
	 width="61px" height="61px" viewBox="0 0 61 61" enable-background="new 0 0 61 61" xml:space="preserve">
<path display="none" fill="none" stroke="#8FC6A9" stroke-miterlimit="10" d="M12.898,17.438v4.47c0,0,1.919,0,1.929,0
	c0.01,0,0.99-0.03,0.99,0.949c0,0.949,0,18.095,0,18.095s0.043,0.979-0.908,0.979c-0.959,0-2.011,0-2.011,0v3.912h10.777v-3.912
	h-2.459V24.97l5.899,20.873h5.379l6.326-20.873v16.961h-2.891v3.912h13.219v-3.912H47.28c0,0-1.057,0.108-1.057-1.102
	c0-1.209,0-17.995,0-17.995s-0.098-0.987,0.965-0.987c1.055,0,1.959,0,1.959,0v-4.409H35.417l-4.659,16.654l-4.653-16.654H12.898z"
	/>
<circle display="none" fill-rule="evenodd" clip-rule="evenodd" fill="none" stroke="#8FC6A8" stroke-linecap="round" stroke-miterlimit="10" cx="30.5" cy="31.5" r="30"/>
<path id="twitter" display="none" fill="#9CC2D3" d="M37.785,18.323c-3.975,0-7.217,3.387-7.217,7.562v0.231
	c-4.074-0.576-7.839-2.787-10.471-6.184c-0.199-0.277-0.522-0.432-0.866-0.432l-0.089,0.01c-0.366,0.022-0.699,0.232-0.877,0.565
	c-0.634,1.144-0.965,2.454-0.965,3.776c0,1.23,0.289,2.42,0.81,3.475c-0.1,0.022-0.2,0.067-0.301,0.123
	c-0.332,0.189-0.555,0.543-0.555,0.943v0.1c0,2.221,0.933,4.264,2.443,5.674l-0.022,0.012c-0.256,0.289-0.344,0.7-0.233,1.076
	c0.645,2.122,2.132,3.799,4.009,4.642c-1.487,0.767-3.132,1.156-4.83,1.156c-0.445,0-0.89-0.022-1.333-0.078l-0.133-0.011
	c-0.455,0-0.865,0.288-1.033,0.721c-0.177,0.489,0,1.021,0.423,1.312c2.988,2.02,6.44,3.086,9.981,3.086
	c6.976,0,11.328-3.464,13.759-6.374c3.008-3.598,4.74-8.371,4.74-13.08v-0.311c1.11-0.922,2.065-2.021,2.854-3.266
	c0.267-0.41,0.223-0.953-0.1-1.331c-0.211-0.245-0.521-0.377-0.833-0.377c-0.067,0-0.133,0.011-0.211,0.021
	c0.179-0.367,0.332-0.743,0.444-1.132c0.133-0.445-0.013-0.922-0.378-1.212c-0.2-0.155-0.433-0.233-0.678-0.233
	c-0.2,0-0.398,0.058-0.576,0.179c-0.922,0.576-1.912,1-2.954,1.277C41.283,19.012,39.562,18.323,37.785,18.323z M37.785,19.434
	c1.756,0,3.344,0.788,4.465,2.031c1.387-0.287,2.698-0.82,3.875-1.564c-0.455,1.509-1.42,2.775-2.687,3.575
	c1.243-0.155,2.419-0.512,3.509-1.021c-0.812,1.299-1.854,2.43-3.043,3.342c0.011,0.277,0.011,0.555,0.011,0.832
	c0,8.518-6.139,18.344-17.389,18.344c-3.452,0-6.663-1.066-9.371-2.897c0.477,0.054,0.966,0.089,1.466,0.089
	c2.854,0,5.495-1.033,7.584-2.754c-2.677-0.057-4.931-1.922-5.708-4.486c0.378,0.078,0.755,0.123,1.155,0.123
	c0.556,0,1.088-0.079,1.609-0.234c-2.797-0.588-4.906-3.197-4.906-6.318v-0.078c0.82,0.477,1.766,0.766,2.765,0.801
	c-1.633-1.156-2.721-3.121-2.721-5.363c0-1.178,0.311-2.287,0.832-3.242c3.021,3.908,7.519,6.474,12.604,6.739
	c-0.112-0.478-0.167-0.966-0.167-1.465C31.668,22.319,34.41,19.434,37.785,19.434z"/>
<circle display="none" fill-rule="evenodd" clip-rule="evenodd" fill="none" stroke="#9CC2D3" stroke-miterlimit="10" cx="30" cy="31" r="30"/>
<path id="dribble" fill-rule="evenodd" clip-rule="evenodd" fill="#E0A9C7" d="M44.513,17.538l-0.25,0.312
	c-2.601,3.187-5.813,5.573-9.825,7.288l-1.074,0.449l0.512,1.087c0.476,1.013,0.938,2.062,1.399,3.151l0.338,0.799l0.825-0.138
	c1.575-0.263,3.25-0.4,4.975-0.4c2.313,0,4.787,0.238,7.363,0.713l0.825,0.15c0-0.2,0.024-0.388,0.024-0.575
	C49.625,25.399,47.676,20.888,44.513,17.538z M25.574,12.4l0.126,0.174c2.4,3.426,4.6,7.051,6.55,10.801l0.45,0.875l0.899-0.361
	c4.013-1.676,7.325-4.127,9.825-7.288l0.062-0.075c-3.337-3.037-7.75-4.9-12.612-4.9C29.038,11.625,27.263,11.9,25.574,12.4z
	 M12.449,26.938l0.775,0.076C20.238,27,25.574,26.4,30.05,25.112l1.325-0.374l-0.662-1.25c-2.4-4.551-4.838-8.226-6.538-10.613
	C18.175,15.188,13.649,20.475,12.449,26.938z M17.762,43.763l0.351-0.525C22.199,37,27.075,33.088,33.024,31.275l1.188-0.363
	l-0.501-1.187c-0.425-0.963-0.85-1.927-1.274-2.838l-0.412-0.876l-0.876,0.213c-4.862,1.488-10.513,2.062-18.3,2.062h-0.6
	c-0.075,0.688-0.125,1.375-0.125,2.088C12.125,35.625,14.288,40.363,17.762,43.763z M38.8,47.35c-0.649-4.6-1.888-9.35-3.675-14.112
	L34.763,32.3l-0.938,0.263c-7.926,2.275-12.287,7.925-14.875,11.987l-0.125,0.188c3.262,2.736,7.462,4.387,12.05,4.387
	C33.712,49.125,36.4,48.476,38.8,47.35z M49.513,32.412L48.9,32.3c-2.613-0.499-5.113-0.751-7.438-0.751
	c-1.35,0-2.675,0.088-3.937,0.252l-1.362,0.187l0.487,1.337c1.562,4.25,2.687,8.501,3.361,12.613l0.126,0.725
	C45.238,43.763,48.85,38.537,49.513,32.412z M30.875,50.375c-11.05,0-20-8.95-20-20s8.95-20,20-20s20,8.95,20,20
	S41.925,50.375,30.875,50.375z"/>
<circle fill-rule="evenodd" clip-rule="evenodd" fill="none" stroke="#E0A8C7" stroke-miterlimit="10" cx="30.5" cy="30.5" r="30"/>
<path id="linkedin" display="none" fill-rule="evenodd" clip-rule="evenodd" fill="#8EB9D6" d="M15.486,17.805
	c-1.992,0-3.613,1.621-3.613,3.613s1.621,3.613,3.613,3.613s3.612-1.621,3.612-3.613S17.479,17.805,15.486,17.805z M15.486,26.062
	c-2.57,0-4.646-2.075-4.646-4.645s2.075-4.645,4.646-4.645s4.646,2.074,4.646,4.645S18.057,26.062,15.486,26.062z M19.099,28.055
	h-7.226v18.644h7.226V28.055z M12.327,47.73h-1.486v-0.547V27.611v-0.588h1.486h6.339h1.466v0.588v19.572v0.547h-1.466H12.327z
	 M41.809,36.055c0-7.72-4.666-9.062-7.287-9.062c-2.622,0-4.067,0.95-6.132,3.251v-2.188h-6.193v18.644h6.193V36.551
	c0-2.25,0.93-4.438,3.303-4.438c2.374,0,2.891,2.188,2.891,4.387v10.198h7.226V36.055z M41.334,47.73h-6.308H33.55v-0.547V36.5
	c0-3.355-1.33-3.355-1.857-3.355c-2.22,0-2.271,2.84-2.271,3.406v10.633v0.547h-0.713h-6.327h-1.218v-0.547V27.611v-0.588h1.218
	h6.327h0.713v0.516c1.032-1,2.787-1.578,4.861-1.578c1.405,0,3.758,0.329,5.451,1.909c1.847,1.724,3.106,4.48,3.106,8.185v11.129
	v0.547H41.334z"/>
<circle display="none" fill-rule="evenodd" clip-rule="evenodd" fill="none" stroke="#8EB9D6" stroke-miterlimit="10" cx="25.841" cy="33.25" r="30"/>
<path id="facebook_1_" display="none" fill-rule="evenodd" clip-rule="evenodd" fill="#818CC1" d="M22.017,52.496V34.87h-4.699
	v-7.368h4.699v-6.647c0-2.48,1.85-6.358,6.426-6.358h0.604c7.391,0,7.266,0,7.266,0v7.964h-4.832c0,0-1.479,0.015-1.479,1.588v3.454
	H34.8v7.368h-4.799v17.626H22.017z M33.5,33.57v-4.768l-3.978,0.014h-0.905v-1.589v-3.179c0-2.033,0.94-2.874,2.401-2.889h3.993
	v-5.364h-6.999c-2.527,0-4.695,2.483-4.695,5.059v7.948h-4.84v4.768h4.84v17.626h5.384V33.57H33.5z M47.517,43.107"/>
<circle display="none" fill-rule="evenodd" clip-rule="evenodd" fill="none" stroke="#818CC1" stroke-miterlimit="10" cx="26.341" cy="32.75" r="30"/>
</svg>
