<?xml version="1.0" encoding="utf-8"?>
<!-- Generator: Adobe Illustrator 16.0.0, SVG Export Plug-In . SVG Version: 6.00 Build 0)  -->
<!DOCTYPE svg PUBLIC "-//W3C//DTD SVG 1.1//EN" "http://www.w3.org/Graphics/SVG/1.1/DTD/svg11.dtd">
<svg version="1.1" id="Layer_1" xmlns="http://www.w3.org/2000/svg" xmlns:xlink="http://www.w3.org/1999/xlink" x="0px" y="0px"
	 width="61px" height="61px" viewBox="0 0 61 61" enable-background="new 0 0 61 61" xml:space="preserve">
<path display="none" fill="none" stroke="#8FC6A9" stroke-miterlimit="10" d="M17.057,15.188v4.47c0,0,1.919,0,1.929,0
	c0.01,0,0.99-0.03,0.99,0.949c0,0.949,0,18.095,0,18.095s0.043,0.979-0.908,0.979c-0.959,0-2.011,0-2.011,0v3.912h10.777v-3.912
	h-2.459V22.72l5.899,20.873h5.379l6.326-20.873v16.961h-2.891v3.912h13.219v-3.912h-1.867c0,0-1.057,0.108-1.057-1.102
	c0-1.209,0-17.995,0-17.995s-0.098-0.987,0.965-0.987c1.055,0,1.959,0,1.959,0v-4.409H39.576l-4.659,16.654l-4.653-16.654H17.057z"
	/>
<circle display="none" fill-rule="evenodd" clip-rule="evenodd" fill="none" stroke="#8FC6A8" stroke-linecap="round" stroke-miterlimit="10" cx="34.659" cy="29.25" r="30"/>
<path id="twitter" display="none" fill="#9CC2D3" d="M41.944,16.073c-3.975,0-7.217,3.387-7.217,7.562v0.231
	c-4.074-0.576-7.839-2.787-10.471-6.184c-0.199-0.277-0.522-0.432-0.866-0.432l-0.089,0.01c-0.366,0.022-0.699,0.232-0.877,0.565
	c-0.634,1.144-0.965,2.454-0.965,3.776c0,1.23,0.289,2.42,0.81,3.475c-0.1,0.022-0.2,0.067-0.301,0.123
	c-0.332,0.189-0.555,0.543-0.555,0.943v0.1c0,2.221,0.933,4.264,2.443,5.674l-0.022,0.012c-0.256,0.289-0.344,0.7-0.233,1.076
	c0.645,2.122,2.132,3.799,4.009,4.642c-1.487,0.767-3.132,1.156-4.83,1.156c-0.445,0-0.89-0.022-1.333-0.078l-0.133-0.011
	c-0.455,0-0.865,0.288-1.033,0.721c-0.177,0.489,0,1.021,0.423,1.312c2.988,2.02,6.44,3.086,9.981,3.086
	c6.976,0,11.328-3.464,13.759-6.374c3.008-3.598,4.74-8.371,4.74-13.08v-0.311c1.11-0.922,2.065-2.021,2.854-3.266
	c0.267-0.41,0.223-0.953-0.1-1.331c-0.211-0.245-0.521-0.377-0.833-0.377c-0.067,0-0.133,0.011-0.211,0.021
	c0.179-0.367,0.332-0.743,0.444-1.132c0.133-0.445-0.013-0.922-0.378-1.212c-0.2-0.155-0.433-0.233-0.678-0.233
	c-0.2,0-0.398,0.058-0.576,0.179c-0.922,0.576-1.912,1-2.954,1.277C45.442,16.762,43.722,16.073,41.944,16.073z M41.944,17.184
	c1.756,0,3.344,0.788,4.465,2.031c1.387-0.287,2.698-0.82,3.875-1.564c-0.455,1.509-1.42,2.775-2.687,3.575
	c1.243-0.155,2.419-0.512,3.509-1.021c-0.812,1.299-1.854,2.43-3.043,3.342c0.011,0.277,0.011,0.555,0.011,0.832
	c0,8.518-6.139,18.344-17.389,18.344c-3.452,0-6.663-1.066-9.371-2.897c0.477,0.054,0.966,0.089,1.466,0.089
	c2.854,0,5.495-1.033,7.584-2.754c-2.677-0.057-4.931-1.922-5.708-4.486c0.378,0.078,0.755,0.123,1.155,0.123
	c0.556,0,1.088-0.079,1.609-0.234c-2.797-0.588-4.906-3.197-4.906-6.318v-0.078c0.82,0.477,1.766,0.766,2.765,0.801
	c-1.633-1.156-2.721-3.121-2.721-5.363c0-1.178,0.311-2.287,0.832-3.242c3.021,3.908,7.519,6.474,12.604,6.739
	c-0.112-0.478-0.167-0.966-0.167-1.465C35.827,20.069,38.569,17.184,41.944,17.184z"/>
<circle display="none" fill-rule="evenodd" clip-rule="evenodd" fill="none" stroke="#9CC2D3" stroke-miterlimit="10" cx="34.159" cy="28.75" r="30"/>
<path id="dribble" display="none" fill-rule="evenodd" clip-rule="evenodd" fill="#E0A9C7" d="M48.672,15.288l-0.25,0.312
	c-2.601,3.187-5.813,5.573-9.825,7.288l-1.074,0.449l0.512,1.087c0.476,1.013,0.938,2.062,1.399,3.151l0.338,0.799l0.825-0.138
	c1.575-0.263,3.25-0.4,4.975-0.4c2.313,0,4.787,0.238,7.363,0.713l0.825,0.15c0-0.2,0.024-0.388,0.024-0.575
	C53.784,23.149,51.835,18.638,48.672,15.288z M29.733,10.15l0.126,0.174c2.4,3.426,4.6,7.051,6.55,10.801L36.859,22l0.899-0.361
	c4.013-1.676,7.325-4.127,9.825-7.288l0.062-0.075c-3.337-3.037-7.75-4.9-12.612-4.9C33.197,9.375,31.422,9.65,29.733,10.15z
	 M16.608,24.688l0.775,0.076c7.014-0.014,12.35-0.613,16.825-1.901l1.325-0.374l-0.662-1.25c-2.4-4.551-4.838-8.226-6.538-10.613
	C22.334,12.938,17.809,18.225,16.608,24.688z M21.921,41.513l0.351-0.525c4.087-6.237,8.963-10.149,14.912-11.962l1.188-0.363
	l-0.501-1.187c-0.425-0.963-0.85-1.927-1.274-2.838l-0.412-0.876l-0.876,0.213c-4.862,1.488-10.513,2.062-18.3,2.062h-0.6
	c-0.075,0.688-0.125,1.375-0.125,2.088C16.284,33.375,18.447,38.113,21.921,41.513z M42.959,45.1
	c-0.649-4.6-1.888-9.35-3.675-14.112l-0.362-0.938l-0.938,0.263c-7.926,2.275-12.287,7.925-14.875,11.987l-0.125,0.188
	c3.262,2.736,7.462,4.387,12.05,4.387C37.871,46.875,40.56,46.226,42.959,45.1z M53.672,30.162L53.06,30.05
	c-2.613-0.499-5.113-0.751-7.438-0.751c-1.35,0-2.675,0.088-3.937,0.252l-1.362,0.187l0.487,1.337
	c1.562,4.25,2.687,8.501,3.361,12.613l0.126,0.725C49.397,41.513,53.009,36.287,53.672,30.162z M35.034,48.125
	c-11.05,0-20-8.95-20-20s8.95-20,20-20s20,8.95,20,20S46.084,48.125,35.034,48.125z"/>
<circle display="none" fill-rule="evenodd" clip-rule="evenodd" fill="none" stroke="#E0A8C7" stroke-miterlimit="10" cx="34.659" cy="28.25" r="30"/>
<path id="linkedin" display="none" fill-rule="evenodd" clip-rule="evenodd" fill="#8EB9D6" d="M19.646,15.555
	c-1.992,0-3.613,1.621-3.613,3.613s1.621,3.613,3.613,3.613s3.612-1.621,3.612-3.613S21.638,15.555,19.646,15.555z M19.646,23.812
	c-2.57,0-4.646-2.075-4.646-4.645s2.075-4.645,4.646-4.645s4.646,2.074,4.646,4.645S22.216,23.812,19.646,23.812z M23.258,25.805
	h-7.226v18.644h7.226V25.805z M16.486,45.48H15v-0.547V25.361v-0.588h1.486h6.339h1.466v0.588v19.572v0.547h-1.466H16.486z
	 M45.968,33.805c0-7.72-4.666-9.062-7.287-9.062c-2.622,0-4.067,0.95-6.132,3.251v-2.188h-6.193v18.644h6.193V34.301
	c0-2.25,0.93-4.438,3.303-4.438c2.374,0,2.891,2.188,2.891,4.387v10.198h7.226V33.805z M45.493,45.48h-6.308h-1.477v-0.547V34.25
	c0-3.355-1.33-3.355-1.857-3.355c-2.22,0-2.271,2.84-2.271,3.406v10.633v0.547h-0.713h-6.327h-1.218v-0.547V25.361v-0.588h1.218
	h6.327h0.713v0.516c1.032-1,2.787-1.578,4.861-1.578c1.405,0,3.758,0.329,5.451,1.909C45.74,27.343,47,30.1,47,33.805v11.129v0.547
	H45.493z"/>
<circle display="none" fill-rule="evenodd" clip-rule="evenodd" fill="none" stroke="#8EB9D6" stroke-miterlimit="10" cx="30" cy="31" r="30"/>
<path id="facebook_1_" fill-rule="evenodd" clip-rule="evenodd" fill="#818CC1" d="M26.176,50.246V32.62h-4.699v-7.368h4.699v-6.647
	c0-2.48,1.85-6.358,6.426-6.358h0.604c7.391,0,7.266,0,7.266,0v7.964h-4.832c0,0-1.479,0.015-1.479,1.588v3.454h4.799v7.368H34.16
	v17.626H26.176z M37.659,31.32v-4.768l-3.978,0.014h-0.905v-1.589v-3.179c0-2.033,0.94-2.874,2.401-2.889h3.993v-5.364h-6.999
	c-2.527,0-4.695,2.483-4.695,5.059v7.948h-4.84v4.768h4.84v17.626h5.384V31.32H37.659z M51.676,40.857"/>
<circle fill-rule="evenodd" clip-rule="evenodd" fill="none" stroke="#818CC1" stroke-miterlimit="10" cx="30.5" cy="30.5" r="30"/>
</svg>
