<?xml version="1.0" encoding="utf-8"?>
<!-- Generator: Adobe Illustrator 16.0.0, SVG Export Plug-In . SVG Version: 6.00 Build 0)  -->
<!DOCTYPE svg PUBLIC "-//W3C//DTD SVG 1.1//EN" "http://www.w3.org/Graphics/SVG/1.1/DTD/svg11.dtd">
<svg version="1.1" id="Layer_1" xmlns="http://www.w3.org/2000/svg" xmlns:xlink="http://www.w3.org/1999/xlink" x="0px" y="0px"
	 width="61px" height="61px" viewBox="0 0 61 61" enable-background="new 0 0 61 61" xml:space="preserve">
<g>
	<path fill="#8FC6A9" d="M49.648,45.343H35.43v-4.911h2.891V27.344l-5.455,17.999h-6.128l-5.021-17.765v12.854h2.459v4.911H12.398
		v-4.911h2.511c0.199,0,0.265-0.066,0.286-0.089c0.104-0.105,0.123-0.311,0.122-0.374l0-18.112c0-0.111,0-0.449-0.479-0.449h-2.44
		v-5.47h14.086l4.274,15.296l4.28-15.296h14.608v5.409h-2.459c-0.177,0-0.301,0.037-0.369,0.109
		c-0.092,0.099-0.102,0.279-0.098,0.335l0.002,18.038c0,0.263,0.063,0.438,0.189,0.523c0.112,0.075,0.26,0.082,0.303,0.082
		l2.434-0.003V45.343z M36.43,44.343h12.219v-2.911h-1.369c-0.253-0.001-0.602-0.03-0.927-0.25c-0.287-0.194-0.63-0.586-0.63-1.353
		V21.834c-0.004-0.016-0.049-0.603,0.353-1.046c0.182-0.201,0.523-0.441,1.112-0.441h1.459v-3.409H35.796l-5.039,18.011
		l-5.032-18.011H13.398v3.47h1.429c0.723,0,1.49,0.453,1.49,1.449v18.095c0.002,0.045,0.017,0.648-0.397,1.08
		c-0.174,0.183-0.491,0.399-1.011,0.399h-1.511v2.911h9.777v-2.911h-2.459V20.363l6.778,23.98h4.629l7.197-23.746v20.835H36.43
		V44.343z"/>
</g>
<circle fill="none" stroke="#8FC6A8" stroke-linecap="round" stroke-miterlimit="10" cx="30.5" cy="30.5" r="30"/>
</svg>
